<?xml version="1.0" standalone="no"?>
<!DOCTYPE svg PUBLIC "-//W3C//DTD SVG 20010904//EN"
 "http://www.w3.org/TR/2001/REC-SVG-20010904/DTD/svg10.dtd">
<svg version="1.0" xmlns="http://www.w3.org/2000/svg"
 width="512.000000pt" height="512.000000pt" viewBox="0 0 512.000000 512.000000"
 preserveAspectRatio="xMidYMid meet">
<metadata>
Created by potrace 1.11, written by Peter Selinger 2001-2013
</metadata>
<g transform="translate(0.000000,512.000000) scale(0.100000,-0.100000)"
fill="#000000" stroke="none">
<path d="M967 5109 c-101 -24 -204 -93 -265 -178 -47 -65 -82 -149 -88 -211
-1 -14 -2 -879 -3 -1922 l-1 -1898 -234 0 c-128 0 -247 -3 -264 -6 -39 -8 -84
-49 -102 -92 -17 -43 -8 -297 13 -363 64 -197 201 -338 395 -407 l77 -27 1815
-2 c1280 -2 1827 0 1855 8 150 40 285 168 326 307 7 23 13 42 13 42 1 0 21 -6
46 -14 220 -65 467 64 545 284 23 64 30 178 15 242 -30 123 -47 146 -332 434
l-268 270 0 1575 c0 1090 -3 1586 -11 1614 -33 124 -130 250 -231 301 -111 56
-28 54 -1708 53 -873 -1 -1572 -5 -1593 -10z"/>
</g>
</svg>
